<?xml version="1.0" standalone="no"?>
<!DOCTYPE svg PUBLIC "-//W3C//DTD SVG 20010904//EN"
 "http://www.w3.org/TR/2001/REC-SVG-20010904/DTD/svg10.dtd">
<svg version="1.0" xmlns="http://www.w3.org/2000/svg"
 width="193.000000pt" height="261.000000pt" viewBox="0 0 193.000000 261.000000"
 preserveAspectRatio="xMidYMid meet">
<metadata>
Created by potrace 1.16, written by Peter Selinger 2001-2019
</metadata>
<g transform="translate(0.000000,261.000000) scale(0.100000,-0.100000)"
fill="#000000" stroke="none">
<path d="M0 1305 l0 -1306 340 2 c245 1 340 4 343 13 3 8 10 8 26 -1 16 -10
159 -13 621 -13 l600 0 0 699 c0 477 -3 700 -10 703 -6 2 -12 15 -14 29 -1 13
-6 30 -10 37 -4 7 -4 12 -1 12 4 0 -1 8 -11 17 -15 15 -16 36 -10 213 3 107 9
354 12 548 l7 352 -947 0 -946 0 0 -1305z m1083 1010 c20 -4 40 -11 43 -16 3
-5 14 -9 24 -9 24 0 34 -17 35 -55 0 -18 5 -29 12 -28 7 2 10 -4 7 -12 -4 -8
-10 -15 -14 -15 -14 0 -20 -30 -10 -56 6 -14 14 -22 20 -19 5 3 10 1 10 -5 0
-7 -7 -9 -17 -5 -41 15 -115 26 -131 19 -28 -12 -36 -11 -59 9 -12 11 -33 25
-45 32 -13 6 -21 18 -19 26 32 124 50 154 86 145 11 -2 37 -8 58 -11z m-128
-213 c0 -24 23 -36 49 -24 22 10 25 8 34 -17 6 -16 7 -33 2 -37 -4 -5 -11 -19
-14 -30 -5 -16 -2 -23 14 -27 11 -3 20 -11 20 -17 0 -7 -7 -10 -17 -6 -9 4
-31 1 -50 -5 -19 -6 -37 -9 -39 -6 -13 12 -34 134 -28 160 5 26 29 34 29 9z
m-1 -318 c3 -8 2 -12 -3 -9 -5 3 -12 1 -16 -5 -3 -5 -21 -17 -40 -26 -19 -9
-35 -20 -35 -24 0 -11 -112 -201 -116 -197 -2 2 18 44 44 93 l48 90 -28 -4
c-15 -2 -27 -7 -26 -11 1 -7 -4 -22 -34 -95 -11 -27 -17 -58 -14 -69 3 -12 0
-27 -5 -34 -6 -7 -16 -34 -23 -60 l-13 -48 -12 38 c-7 20 -17 35 -21 32 -10
-6 -5 48 6 66 5 8 3 9 -6 4 -7 -4 -16 -2 -22 6 -7 10 -7 7 -3 -8 4 -14 2 -23
-5 -23 -7 0 -7 -7 1 -22 7 -13 12 -25 12 -28 0 -3 7 -20 15 -37 18 -38 9 -56
-13 -27 -10 13 -14 15 -15 5 0 -11 -3 -11 -17 0 -15 12 -16 12 -9 -6 6 -17 3
-16 -20 5 -15 14 -24 19 -20 12 5 -8 1 -21 -10 -33 -9 -10 -14 -19 -9 -19 4 0
14 8 21 18 12 15 13 14 4 -11 -9 -26 -9 -27 13 -16 12 6 19 8 15 4 -4 -4 1
-15 10 -24 10 -9 13 -13 8 -8 -6 4 -18 7 -29 7 -21 0 -101 44 -135 73 -12 12
-22 15 -22 9 0 -7 5 -12 11 -12 5 0 7 -5 4 -10 -3 -6 1 -13 9 -16 12 -5 13 -9
3 -19 -9 -9 -14 -10 -19 -1 -5 7 -8 6 -8 -4 0 -12 -2 -12 -9 -2 -12 20 15 136
43 179 31 50 52 68 109 93 26 12 47 24 47 29 0 8 57 35 213 102 53 23 100 45
103 50 7 13 11 11 18 -7z m121 -134 c22 -44 43 -80 46 -80 4 0 9 -8 12 -17 3
-14 6 -12 17 10 13 26 18 28 49 23 19 -3 41 0 48 6 10 8 13 5 13 -13 l0 -24
20 25 c10 14 21 23 23 20 9 -9 -32 -52 -42 -46 -6 4 -22 -15 -38 -41 -15 -27
-31 -49 -35 -51 -21 -9 -83 -66 -80 -74 1 -5 -2 -7 -8 -3 -6 3 -8 10 -5 15 3
4 -2 23 -10 41 l-15 34 6 -40 7 -40 -22 19 c-11 11 -21 25 -21 33 0 7 -9 41
-20 74 -17 49 -18 64 -8 82 11 21 12 21 19 -13 4 -19 15 -51 23 -70 12 -27 15
-30 16 -14 0 12 7 24 15 28 12 4 10 11 -11 33 -18 19 -23 34 -19 50 3 13 2 23
-3 23 -8 0 -32 58 -32 78 0 28 18 6 55 -68z m-230 -51 c-26 -52 -50 -101 -54
-109 -5 -9 -12 -30 -16 -48 -3 -18 -10 -30 -15 -27 -4 3 -6 -5 -3 -16 5 -18 9
-13 24 25 10 26 23 54 31 63 7 9 30 50 50 92 21 42 38 74 38 71 0 -3 -11 -39
-25 -80 -14 -41 -27 -100 -30 -130 -5 -55 -5 -55 8 -18 15 44 37 71 37 45 0
-9 5 -17 10 -17 6 0 10 -7 10 -16 0 -13 3 -14 15 -4 12 10 16 9 21 -4 3 -9 3
-27 0 -40 -3 -14 -3 -32 1 -41 5 -14 8 -12 19 11 7 16 13 23 13 17 1 -7 6 -13
12 -13 6 0 9 7 5 15 -3 8 -2 15 3 15 17 0 20 -44 4 -62 -10 -11 -12 -18 -5
-18 7 0 12 5 12 10 0 6 5 10 10 10 6 0 10 -7 10 -15 0 -8 -4 -15 -10 -15 -5 0
-10 -7 -10 -15 0 -8 -4 -15 -10 -15 -5 0 -10 -5 -10 -11 0 -5 6 -7 13 -3 7 4
9 3 4 -2 -5 -5 -11 -8 -14 -6 -10 6 -31 -33 -23 -43 5 -7 -10 -9 -46 -7 -36 3
-54 0 -54 -8 0 -7 -7 -4 -17 5 -15 16 -18 16 -28 2 -7 -10 -20 -14 -33 -10
-17 4 -22 1 -22 -13 0 -9 -3 -15 -6 -11 -4 3 -3 14 1 24 12 28 15 64 4 58 -5
-4 -9 -16 -9 -27 0 -35 -10 -14 -14 28 -2 22 1 49 5 62 6 16 6 21 -2 16 -9 -5
-10 4 -5 32 l6 39 -15 -27 c-9 -16 -17 -28 -19 -28 -9 0 4 74 13 83 14 14 14
30 1 22 -16 -10 -12 3 8 23 9 10 22 27 29 38 12 18 12 18 7 -1 -5 -15 -4 -17
4 -6 6 8 8 19 6 26 -3 6 4 20 16 30 11 10 20 22 20 28 0 10 64 116 68 112 1
-1 -18 -44 -43 -96z m724 14 c-13 -17 -13 -17 13 0 15 9 29 13 32 8 3 -4 -6
-14 -19 -21 -14 -7 -25 -17 -25 -22 0 -11 79 2 113 19 15 7 27 10 27 5 0 -4
17 -6 38 -4 48 5 96 -29 89 -64 -2 -13 1 -25 7 -28 6 -2 3 -5 -8 -5 -16 -1
-17 -3 -5 -18 10 -12 10 -15 1 -9 -13 8 -72 -14 -72 -27 0 -4 9 -3 21 3 11 6
24 10 29 8 5 -2 -33 -28 -85 -59 -52 -31 -95 -53 -95 -48 0 5 5 9 10 9 6 0 18
8 28 18 9 9 33 27 52 39 19 13 32 23 29 23 -16 0 -78 -31 -116 -59 -71 -52
-47 -20 30 39 78 60 94 70 82 49 -5 -8 -5 -11 -1 -7 4 3 8 10 8 15 0 4 4 14
10 21 23 27 -12 10 -67 -33 -32 -24 -61 -42 -66 -40 -14 10 -2 40 17 40 10 1
18 6 17 13 -2 6 18 25 43 43 58 39 50 50 -11 15 -40 -24 -115 -95 -185 -176
-24 -28 -17 -10 12 33 25 34 16 35 -16 0 l-25 -26 10 43 c5 24 12 47 15 52 3
5 0 15 -6 23 -6 8 -8 19 -4 26 4 6 7 20 8 30 1 11 3 18 6 17 12 -4 50 24 44
33 -3 5 0 16 6 24 18 21 25 19 9 -2z m-245 -85 c-2 -24 -1 -35 2 -25 4 11 12
16 20 13 9 -3 12 -1 9 4 -4 6 1 18 11 27 15 16 16 15 9 -15 -5 -25 -3 -32 7
-30 19 4 28 19 28 48 0 20 2 22 10 10 8 -12 10 -12 10 -1 0 8 2 12 4 10 6 -6
-11 -161 -23 -205 -12 -44 -62 -80 -96 -68 -19 7 -19 6 0 -9 11 -8 23 -13 27
-11 5 3 8 0 8 -5 0 -6 -4 -11 -9 -11 -5 0 -13 -9 -16 -20 -4 -12 -15 -20 -28
-20 -18 0 -19 2 -7 10 13 8 12 10 -2 10 -10 0 -18 -2 -18 -4 0 -2 -3 -12 -7
-22 -4 -11 -3 -15 5 -10 6 3 13 2 17 -4 4 -6 -5 -10 -20 -10 -17 0 -24 -4 -19
-11 5 -9 -1 -10 -19 -5 -20 5 -31 1 -44 -14 -10 -11 -21 -20 -25 -20 -14 0 -8
23 10 36 9 7 12 14 5 14 -6 0 -15 -4 -18 -10 -4 -6 -13 -5 -25 2 -17 11 -17
13 -2 24 10 7 13 16 8 21 -5 4 -11 2 -13 -4 -11 -30 -18 -9 -20 54 -1 46 1 63
8 53 8 -13 12 -11 29 10 11 14 20 29 20 33 0 5 5 5 11 1 7 -4 6 2 -2 17 -11
22 -11 23 5 10 9 -8 16 -10 15 -5 -5 18 13 54 27 54 8 0 14 6 15 13 0 6 4 3 9
-8 7 -17 9 -16 10 10 1 17 4 24 7 17 4 -10 8 -9 19 5 7 10 13 23 14 28 0 6 -4
4 -9 -4 -6 -9 -11 -10 -15 -2 -7 10 5 15 30 12 7 -1 15 10 18 24 10 38 15 30
10 -17z m-604 -338 c26 -26 25 -60 -1 -113 -18 -35 -20 -46 -11 -72 9 -24 9
-27 -1 -14 -7 8 -20 18 -30 22 -15 5 -17 3 -12 -12 5 -15 1 -18 -22 -14 l-28
5 24 -18 c13 -9 43 -21 67 -25 24 -5 70 -20 101 -35 49 -24 73 -28 180 -32
123 -5 298 12 309 29 3 5 13 9 22 9 14 0 15 -2 2 -10 -21 -13 -10 -17 35 -13
l40 5 0 96 c0 82 4 104 23 139 27 51 55 61 126 45 28 -7 92 -17 141 -23 165
-19 160 -17 158 -69 -3 -52 -25 -86 -73 -111 -38 -20 -89 -84 -90 -110 0 -10
-10 -35 -22 -56 l-23 -39 -122 1 c-67 1 -120 -2 -117 -7 3 -4 13 -8 23 -8 11
0 29 -9 42 -20 26 -21 27 -20 -31 -24 -22 -1 -18 -19 5 -22 16 -3 144 32 193
52 38 16 -33 -103 -77 -129 -41 -24 -149 -28 -161 -6 -7 11 -27 16 -81 17 -40
0 -75 5 -78 10 -10 15 -35 20 -54 10 -12 -6 -23 -5 -33 3 -11 9 -61 14 -155
15 -168 3 -179 6 -179 44 0 25 -15 49 -25 39 -3 -4 -14 -74 -15 -97 0 -7 -4
-11 -8 -8 -5 3 -28 6 -52 8 -30 1 -44 7 -47 19 -4 14 -10 15 -41 6 -21 -6 -43
-17 -50 -24 -7 -7 -22 -13 -32 -13 -10 0 -37 -16 -60 -35 -24 -20 -45 -33 -49
-29 -3 3 9 18 27 33 51 43 42 83 -11 50 -39 -23 -47 -24 -47 -3 0 8 15 21 34
29 33 14 51 37 39 49 -9 9 -43 7 -43 -2 0 -12 -50 -33 -61 -27 -19 12 -8 27
35 46 40 17 56 35 56 60 0 5 -10 1 -22 -11 -25 -23 -78 -27 -78 -5 0 7 7 18
15 23 14 7 14 16 -2 83 -21 91 -20 158 4 224 16 42 23 51 48 53 22 3 25 6 14
14 -10 7 -4 8 21 5 19 -3 67 -2 105 2 117 13 134 12 155 -9z"/>
</g>
</svg>
